<mxfile host="65bd71144e">
    <diagram name="ページ1" id="IBfaDBg--kMcJp61QBM6">
        <mxGraphModel dx="1975" dy="1342" grid="1" gridSize="10" guides="1" tooltips="1" connect="1" arrows="1" fold="1" page="1" pageScale="1" pageWidth="1654" pageHeight="1169" background="#E5E6D6" math="0" shadow="0">
            <root>
                <mxCell id="0"/>
                <mxCell id="1" parent="0"/>
                <mxCell id="5eSE3Pbe7QY9a79AkMWo-2" value="" style="rounded=0;whiteSpace=wrap;html=1;fontFamily=Zen Kaku Gothic New;fontSource=https%3A%2F%2Ffonts.googleapis.com%2Fcss%3Ffamily%3DZen%2BKaku%2BGothic%2BNew;fontSize=45;fontColor=#000000;fillColor=#F7FAD2;gradientColor=none;strokeColor=none;" parent="1" vertex="1">
                    <mxGeometry x="10" y="155" width="536" height="300" as="geometry"/>
                </mxCell>
                <mxCell id="5eSE3Pbe7QY9a79AkMWo-3" value="" style="rounded=0;whiteSpace=wrap;html=1;strokeColor=none;fillColor=#FFFFFF;" parent="1" vertex="1">
                    <mxGeometry x="10" y="220" width="536" height="220" as="geometry"/>
                </mxCell>
                <mxCell id="5eSE3Pbe7QY9a79AkMWo-4" value="&lt;font color=&quot;#0b1729&quot;&gt;&lt;font face=&quot;Lobster&quot; data-font-src=&quot;https://fonts.googleapis.com/css?family=Lobster&quot; style=&quot;font-size: 34px;&quot;&gt;Why I join -&amp;nbsp;&lt;/font&gt;&lt;font face=&quot;Zen Kaku Gothic New&quot; data-font-src=&quot;https://fonts.googleapis.com/css?family=Zen+Kaku+Gothic+New&quot; style=&quot;font-size: 25px;&quot;&gt;参加する理由&lt;/font&gt;&lt;/font&gt;" style="text;html=1;strokeColor=none;fillColor=none;align=center;verticalAlign=middle;whiteSpace=wrap;rounded=0;" parent="1" vertex="1">
                    <mxGeometry x="10" y="155" width="536" height="65" as="geometry"/>
                </mxCell>
                <mxCell id="5eSE3Pbe7QY9a79AkMWo-5" value="&lt;span style=&quot;font-size: 22px;&quot;&gt;&lt;font color=&quot;#1a1a1a&quot; face=&quot;Zen Kaku Gothic New&quot; data-font-src=&quot;https://fonts.googleapis.com/css?family=Zen+Kaku+Gothic+New&quot;&gt;私は高校1,2年でRCJJに参加し、2年生の時にはジャパンオープンまで進むことができました。しかし結果は10位｡3年生の時は受験で参加できず、あっけなく年齢制限を迎え、スッキリしない幕引きとなりました。&lt;br&gt;少しでもあの時のモヤモヤを解消したい、これからボランティアとして参加する上でもっとたくさんの人にあってみたい、そういった思いで参加を決めました。&lt;/font&gt;&lt;/span&gt;" style="text;html=1;fillColor=none;align=left;verticalAlign=top;whiteSpace=wrap;rounded=0;" parent="1" vertex="1">
                    <mxGeometry x="10" y="220" width="540" height="220" as="geometry"/>
                </mxCell>
                <mxCell id="5eSE3Pbe7QY9a79AkMWo-6" value="" style="rounded=0;whiteSpace=wrap;html=1;fontFamily=Zen Kaku Gothic New;fontSource=https%3A%2F%2Ffonts.googleapis.com%2Fcss%3Ffamily%3DZen%2BKaku%2BGothic%2BNew;fontSize=45;fontColor=#000000;fillColor=#CFE2E6;gradientColor=none;strokeColor=none;" parent="1" vertex="1">
                    <mxGeometry x="558" y="520" width="536" height="310" as="geometry"/>
                </mxCell>
                <mxCell id="5eSE3Pbe7QY9a79AkMWo-7" value="" style="rounded=0;whiteSpace=wrap;html=1;fontFamily=Zen Kaku Gothic New;fontSource=https%3A%2F%2Ffonts.googleapis.com%2Fcss%3Ffamily%3DZen%2BKaku%2BGothic%2BNew;fontSize=45;fontColor=#000000;fillColor=#E5D4E6;gradientColor=none;strokeColor=none;flipV=1;" parent="1" vertex="1">
                    <mxGeometry x="556" y="155" width="536" height="355" as="geometry"/>
                </mxCell>
                <mxCell id="IS27BSQo7t6ph5v2KToD-1" value="&lt;font color=&quot;#0b1729&quot;&gt;&lt;font face=&quot;Tahoma&quot; data-font-src=&quot;https://fonts.googleapis.com/css?family=Zen+Kaku+Gothic+New&quot; style=&quot;font-size: 25px;&quot;&gt;ﾀﾞｲﾅﾐｸｾﾙﾊｲｯﾃﾙ&lt;/font&gt;&lt;/font&gt;" style="text;html=1;strokeColor=none;fillColor=none;align=center;verticalAlign=middle;whiteSpace=wrap;rounded=0;" parent="1" vertex="1">
                    <mxGeometry x="558" y="520" width="536" height="65" as="geometry"/>
                </mxCell>
                <mxCell id="IS27BSQo7t6ph5v2KToD-3" value="" style="rounded=0;whiteSpace=wrap;html=1;strokeColor=none;fillColor=#FFFFFF;" parent="1" vertex="1">
                    <mxGeometry x="558" y="585" width="536" height="220" as="geometry"/>
                </mxCell>
                <mxCell id="IS27BSQo7t6ph5v2KToD-4" value="&lt;span style=&quot;font-size: 22px;&quot;&gt;&lt;font style=&quot;font-size: 22px;&quot; color=&quot;#1a1a1a&quot; face=&quot;Zen Kaku Gothic New&quot; data-font-src=&quot;https://fonts.googleapis.com/css?family=Zen+Kaku+Gothic+New&quot;&gt;足回りにはDynamicel XL330-M228-Tを使用しています。&lt;span style=&quot;&quot;&gt;スペックの他にもライブラリなどの機能が充実していることから採用しました。電源の6VはDCDCのLT8640で、TTL信号はデータシートの回路で生成しています。&lt;/span&gt;&lt;br&gt;&lt;br&gt;&lt;/font&gt;&lt;/span&gt;" style="text;html=1;fillColor=none;align=left;verticalAlign=top;whiteSpace=wrap;rounded=0;" parent="1" vertex="1">
                    <mxGeometry x="560" y="585" width="536" height="150" as="geometry"/>
                </mxCell>
                <mxCell id="IS27BSQo7t6ph5v2KToD-5" value="&lt;font color=&quot;#0b1729&quot;&gt;&lt;font face=&quot;Zen Kaku Gothic New&quot; data-font-src=&quot;https://fonts.googleapis.com/css?family=Zen+Kaku+Gothic+New&quot; style=&quot;font-size: 25px;&quot;&gt;一家に一台、FreeRTOSはいかが?&lt;/font&gt;&lt;/font&gt;" style="text;html=1;strokeColor=none;fillColor=none;align=center;verticalAlign=middle;whiteSpace=wrap;rounded=0;" parent="1" vertex="1">
                    <mxGeometry x="556" y="155" width="536" height="65" as="geometry"/>
                </mxCell>
                <mxCell id="IS27BSQo7t6ph5v2KToD-7" value="" style="rounded=0;whiteSpace=wrap;html=1;strokeColor=none;fillColor=#FFFFFF;" parent="1" vertex="1">
                    <mxGeometry x="556" y="220" width="536" height="270" as="geometry"/>
                </mxCell>
                <mxCell id="IS27BSQo7t6ph5v2KToD-8" value="&lt;span style=&quot;font-size: 22px;&quot;&gt;&lt;font style=&quot;font-size: 22px;&quot; color=&quot;#1a1a1a&quot; face=&quot;Zen Kaku Gothic New&quot; data-font-src=&quot;https://fonts.googleapis.com/css?family=Zen+Kaku+Gothic+New&quot;&gt;メインマイコンTeensy4.1にFreeRTOSを使用しています。並行処理の実現によってコードの可読性向上や、ジャイロなどのセンサに一定の制御周期を担保することができます。&lt;br&gt;&lt;/font&gt;&lt;/span&gt;" style="text;html=1;fillColor=none;align=left;verticalAlign=top;whiteSpace=wrap;rounded=0;" parent="1" vertex="1">
                    <mxGeometry x="556" y="220" width="536" height="150" as="geometry"/>
                </mxCell>
                <mxCell id="IS27BSQo7t6ph5v2KToD-9" value="" style="rounded=0;whiteSpace=wrap;html=1;fontFamily=Zen Kaku Gothic New;fontSource=https%3A%2F%2Ffonts.googleapis.com%2Fcss%3Ffamily%3DZen%2BKaku%2BGothic%2BNew;fontSize=45;fontColor=#000000;fillColor=#CFE2E6;gradientColor=none;strokeColor=none;" parent="1" vertex="1">
                    <mxGeometry x="1160" y="850" width="480" height="310" as="geometry"/>
                </mxCell>
                <mxCell id="IS27BSQo7t6ph5v2KToD-10" value="&lt;font color=&quot;#0b1729&quot;&gt;&lt;font face=&quot;Zen Kaku Gothic New&quot; data-font-src=&quot;https://fonts.googleapis.com/css?family=Zen+Kaku+Gothic+New&quot; style=&quot;font-size: 25px;&quot;&gt;情報公開&lt;/font&gt;&lt;/font&gt;" style="text;html=1;strokeColor=none;fillColor=none;align=center;verticalAlign=middle;whiteSpace=wrap;rounded=0;" parent="1" vertex="1">
                    <mxGeometry x="1170" y="850" width="470" height="65" as="geometry"/>
                </mxCell>
                <mxCell id="IS27BSQo7t6ph5v2KToD-11" value="" style="rounded=0;whiteSpace=wrap;html=1;strokeColor=none;fillColor=#FFFFFF;" parent="1" vertex="1">
                    <mxGeometry x="1160" y="915" width="480" height="220" as="geometry"/>
                </mxCell>
                <mxCell id="IS27BSQo7t6ph5v2KToD-12" value="&lt;span style=&quot;font-size: 22px;&quot;&gt;&lt;font style=&quot;font-size: 22px;&quot; color=&quot;#1a1a1a&quot; face=&quot;Zen Kaku Gothic New&quot; data-font-src=&quot;https://fonts.googleapis.com/css?family=Zen+Kaku+Gothic+New&quot;&gt;RCJJの情報公開の理念にのっとり、すべてのコードや設計を公開しています。&lt;br&gt;&lt;/font&gt;&lt;/span&gt;" style="text;html=1;fillColor=none;align=left;verticalAlign=top;whiteSpace=wrap;rounded=0;" parent="1" vertex="1">
                    <mxGeometry x="1170" y="915" width="470" height="150" as="geometry"/>
                </mxCell>
                <mxCell id="IS27BSQo7t6ph5v2KToD-13" value="" style="rounded=0;whiteSpace=wrap;html=1;fontFamily=Zen Kaku Gothic New;fontSource=https%3A%2F%2Ffonts.googleapis.com%2Fcss%3Ffamily%3DZen%2BKaku%2BGothic%2BNew;fontSize=45;fontColor=#000000;fillColor=#C7EBB5;gradientColor=none;strokeColor=none;" parent="1" vertex="1">
                    <mxGeometry x="10" y="915" width="390" height="240" as="geometry"/>
                </mxCell>
                <mxCell id="IS27BSQo7t6ph5v2KToD-14" value="" style="rounded=0;whiteSpace=wrap;html=1;strokeColor=none;fillColor=#FFFFFF;" parent="1" vertex="1">
                    <mxGeometry x="10" y="975" width="390" height="160" as="geometry"/>
                </mxCell>
                <mxCell id="IS27BSQo7t6ph5v2KToD-15" value="&lt;font color=&quot;#0b1729&quot;&gt;&lt;font face=&quot;Zen Kaku Gothic New&quot; data-font-src=&quot;https://fonts.googleapis.com/css?family=Zen+Kaku+Gothic+New&quot; style=&quot;font-size: 25px;&quot;&gt;開発環境&lt;/font&gt;&lt;/font&gt;" style="text;html=1;strokeColor=none;fillColor=none;align=center;verticalAlign=middle;whiteSpace=wrap;rounded=0;" parent="1" vertex="1">
                    <mxGeometry x="10" y="915" width="390" height="65" as="geometry"/>
                </mxCell>
                <mxCell id="IS27BSQo7t6ph5v2KToD-16" value="&lt;span style=&quot;font-size: 22px;&quot;&gt;&lt;font style=&quot;font-size: 22px;&quot; color=&quot;#1a1a1a&quot; face=&quot;Zen Kaku Gothic New&quot; data-font-src=&quot;https://fonts.googleapis.com/css?family=Zen+Kaku+Gothic+New&quot;&gt;コーディング:&amp;nbsp; &amp;nbsp; &amp;nbsp; PlatformIO(VScode)&lt;br&gt;基板設計:&amp;nbsp; &amp;nbsp; &amp;nbsp; &amp;nbsp; &amp;nbsp; &amp;nbsp; &amp;nbsp;KiCAD&lt;br&gt;機体設計:&amp;nbsp; &amp;nbsp; &amp;nbsp; &amp;nbsp; &amp;nbsp; &amp;nbsp; &amp;nbsp;Fusion360，Onshape&lt;br&gt;ポスター:&amp;nbsp; &amp;nbsp; &amp;nbsp; &amp;nbsp; &amp;nbsp; &amp;nbsp; &amp;nbsp;Draw.io&lt;br&gt;&lt;/font&gt;&lt;/span&gt;" style="text;html=1;fillColor=none;align=left;verticalAlign=top;whiteSpace=wrap;rounded=0;" parent="1" vertex="1">
                    <mxGeometry x="10" y="975" width="390" height="150" as="geometry"/>
                </mxCell>
                <mxCell id="OAkqy8QXWObhbwD4REA3-2" value="" style="rounded=0;whiteSpace=wrap;html=1;fontFamily=Zen Kaku Gothic New;fontSource=https%3A%2F%2Ffonts.googleapis.com%2Fcss%3Ffamily%3DZen%2BKaku%2BGothic%2BNew;fontSize=45;fillColor=#F8DCD8;strokeColor=none;flipV=1;" parent="1" vertex="1">
                    <mxGeometry x="1102" y="155" width="536" height="515" as="geometry"/>
                </mxCell>
                <mxCell id="OAkqy8QXWObhbwD4REA3-4" value="" style="rounded=0;whiteSpace=wrap;html=1;strokeColor=none;fillColor=#FFFFFF;" parent="1" vertex="1">
                    <mxGeometry x="1102" y="220" width="536" height="430" as="geometry"/>
                </mxCell>
                <mxCell id="OAkqy8QXWObhbwD4REA3-5" value="&lt;font color=&quot;#0b1729&quot;&gt;&lt;font face=&quot;Zen Kaku Gothic New&quot; data-font-src=&quot;https://fonts.googleapis.com/css?family=Zen+Kaku+Gothic+New&quot; style=&quot;font-size: 25px;&quot;&gt;安心できる走行を&lt;/font&gt;&lt;/font&gt;" style="text;html=1;strokeColor=none;fillColor=none;align=center;verticalAlign=middle;whiteSpace=wrap;rounded=0;" parent="1" vertex="1">
                    <mxGeometry x="1102" y="155" width="536" height="65" as="geometry"/>
                </mxCell>
                <mxCell id="OAkqy8QXWObhbwD4REA3-6" value="&lt;span style=&quot;font-size: 22px;&quot;&gt;&lt;font style=&quot;font-size: 22px;&quot; color=&quot;#1a1a1a&quot; face=&quot;Zen Kaku Gothic New&quot; data-font-src=&quot;https://fonts.googleapis.com/css?family=Zen+Kaku+Gothic+New&quot;&gt;正しく動いてくれるか、ロボットを見守るだけの走行はとても心臓に悪いです。ロボットがウインカーやLCD、スピーカーを用いて「何を考えているか」を示してくれることで、心臓に優しい走行を実現します。&lt;br&gt;&lt;/font&gt;&lt;/span&gt;" style="text;html=1;fillColor=none;align=left;verticalAlign=top;whiteSpace=wrap;rounded=0;" parent="1" vertex="1">
                    <mxGeometry x="1102" y="220" width="536" height="150" as="geometry"/>
                </mxCell>
                <mxCell id="OAkqy8QXWObhbwD4REA3-7" value="" style="rounded=0;whiteSpace=wrap;html=1;fontFamily=Zen Kaku Gothic New;fontSource=https%3A%2F%2Ffonts.googleapis.com%2Fcss%3Ffamily%3DZen%2BKaku%2BGothic%2BNew;fontSize=45;fontColor=#000000;fillColor=#FFDEEC;gradientColor=none;strokeColor=none;" parent="1" vertex="1">
                    <mxGeometry x="12" y="470" width="536" height="310" as="geometry"/>
                </mxCell>
                <mxCell id="OAkqy8QXWObhbwD4REA3-8" value="&lt;font color=&quot;#0b1729&quot;&gt;&lt;font face=&quot;Zen Kaku Gothic New&quot; data-font-src=&quot;https://fonts.googleapis.com/css?family=Zen+Kaku+Gothic+New&quot; style=&quot;font-size: 25px;&quot;&gt;EV3のその先へ&lt;/font&gt;&lt;/font&gt;" style="text;html=1;strokeColor=none;fillColor=none;align=center;verticalAlign=middle;whiteSpace=wrap;rounded=0;" parent="1" vertex="1">
                    <mxGeometry x="14" y="470" width="536" height="65" as="geometry"/>
                </mxCell>
                <mxCell id="OAkqy8QXWObhbwD4REA3-10" value="" style="rounded=0;whiteSpace=wrap;html=1;strokeColor=none;fillColor=#FFFFFF;" parent="1" vertex="1">
                    <mxGeometry x="10" y="535" width="536" height="220" as="geometry"/>
                </mxCell>
                <mxCell id="OAkqy8QXWObhbwD4REA3-11" value="&lt;span style=&quot;font-size: 22px;&quot;&gt;&lt;font style=&quot;font-size: 22px;&quot; color=&quot;#1a1a1a&quot; face=&quot;Zen Kaku Gothic New&quot; data-font-src=&quot;https://fonts.googleapis.com/css?family=Zen+Kaku+Gothic+New&quot;&gt;LEGOだけのロボットに限界を感じ、前大会ではEV3と他のマイコンやセンサ、3Dプリントのパーツを組み合わせた機体を作成しました。今回は更にステップアップして3DCADやPCBを中心に設計した機体になっています。&lt;br&gt;&lt;/font&gt;&lt;/span&gt;" style="text;html=1;fillColor=none;align=left;verticalAlign=top;whiteSpace=wrap;rounded=0;" parent="1" vertex="1">
                    <mxGeometry x="10" y="535" width="536" height="150" as="geometry"/>
                </mxCell>
            </root>
        </mxGraphModel>
    </diagram>
</mxfile>